<?xml version="1.0" encoding="UTF-8"?>
<svg xmlns:xlink="http://www.w3.org/1999/xlink" width="352px" height="846px"
     viewBox="0 0 352 846"
     version="1.1"
     xmlns="http://www.w3.org/2000/svg">
  <title>MAN</title>
  <g id="Page-1" stroke="none" stroke-width="1" fill="none"
     fill-rule="evenodd">
    <g id="MAN" fill-rule="nonzero">
      <g id="Group">
        <polygon id="Path" fill="#F2D0B6"
                 points="135.605263 148.114286 143.157895 98.3744136 190.315789 75.7151386 202.657895 141.666525 216.657895 152.167164 162.315789 194.353945"></polygon>
        <path
          d="M278,806.522814 C278.552632,810.944136 279.842105,819.78678 287.578947,823.655437 C296.973684,828.445203 343.026316,843.182942 333.263158,845.393603 C323.5,847.604264 261.421053,836.182516 261.421053,836.182516 L259.763158,807.443923 L278,806.522814 Z"
          id="Path" fill="#2E2F2F"></path>
        <path
          d="M140.763158,800.259275 C138.368421,806.891258 142.789474,819.418337 128.973684,825.313433 C115.157895,831.208529 95.2631579,835.629851 90.6578947,843.367164 C86.7894737,849.630704 160.657895,834.156077 160.657895,834.156077 L159.184211,797.127505 L140.763158,800.259275 Z"
          id="Path" fill="#2E2F2F"></path>
        <path
          d="M24.8947368,488.187633 L28.5789474,513.057569 L40.3684211,543.63838 L56.5789474,555.428571 C56.5789474,555.428571 61.9210526,547.691258 48.6578947,539.401279 C47.9210526,529.269083 48.1052632,513.241791 48.1052632,513.241791 L54.7368421,518.768443 C54.7368421,518.768443 56.0263158,533.13774 65.2368421,533.506183 L63.3947368,512.504904 L42.7631579,478.976546 L24.8947368,481.924094 L24.8947368,488.187633 Z"
          id="Path" fill="#F2D0B6"></path>
        <path
          d="M310.605263,482.660981 L278.921053,511.215352 C278.921053,511.215352 285.368421,519.873774 297.157895,508.820469 L296.789474,529.637527 C296.789474,529.637527 287.026316,534.979957 290.342105,541.059275 C290.342105,541.059275 282.421053,546.770149 286.842105,552.11258 L293.842105,547.507036 L305.447368,537.743284 L316.868421,524.663539 L329.578947,491.872068 L330.868421,472.528785 L312.631579,467.923241 L310.605263,482.660981 Z"
          id="Path" fill="#F2D0B6"></path>
        <path
          d="M163.973684,813.891684 L160.105263,519.136887 L169.868421,519.136887 L217.210526,667.803838 L251.105263,813.891684 C251.105263,813.891684 271.368421,817.207676 282.236842,813.891684 L256.631579,637.775693 L243.552632,495.740725 L250,493.898507 L241.894737,411.182942 L271.736842,309.308316 L297.710526,372.864819 L305.447368,484.503198 C305.447368,484.503198 317.236842,491.135181 331.236842,490.950959 L351.5,363.101066 L303.973684,206.144136 L234.710526,163.036247 L162.131579,194.538166 L117.921053,158.430704 L33.5526316,206.881023 L0.578947368,362.916844 L22.6842105,489.292964 C38.5263158,490.950959 50.3157895,485.608529 50.3157895,485.608529 L49.5789474,381.339019 L68.3684211,336.757356 L85.1315789,411.367164 L84.7631579,499.42516 L96,502.188486 L130.815789,812.049467 C130.815789,812.049467 147.210526,822.365885 163.973684,813.891684 Z"
          id="Path" fill="#000000"></path>
        <polygon id="Path" fill="#FFFFFF"
                 points="117.921053 158.430704 149.605263 311.703198 234.894737 163.036247 216.657895 152.167164 164.157895 168.5629 135.605263 148.114286"></polygon>
        <polygon id="Path" fill="#2C2C2C"
                 points="164.157895 168.5629 147.763158 183.853305 156.052632 195.459275 136.526316 247.962473 149.605263 311.703198 181.473684 256.252452 169.315789 195.459275 178.526316 185.142857"></polygon>
        <polygon id="Path" fill="#D6B096"
                 points="142.421053 136.692537 167.105263 143.508742 184.605263 162.29936 216.657895 152.167164 202.657895 141.666525 194.552632 89.347548"></polygon>
        <path
          d="M122.157895,35.1863539 L119.210526,78.8469083 L111.473684,91.7424307 L118.473684,91.7424307 L123.815789,123.797015 C124.552632,128.58678 127.131579,133.929211 134.5,135.587207 C141.868421,137.245203 158.263158,139.08742 166,130.797441 C173.736842,122.507463 189.763158,103.716844 190.131579,97.4533049 C190.5,91.1897655 201.184211,41.6341151 201.184211,41.6341151 C201.184211,41.6341151 150.894737,21.3697228 136.526316,20.0801706 C122.157895,18.7906183 122.157895,35.1863539 122.157895,35.1863539 Z"
          id="Path" fill="#F2D0B6"></path>
        <path
          d="M113.315789,4.42132196 C112.394737,12.1586354 113.315789,29.8439232 119.947368,34.8179104 C123.447368,37.0285714 130.263158,39.7918977 130.263158,39.7918977 C154.947368,37.9496802 180.736842,32.6072495 183.868421,45.3185501 C187.184211,58.582516 186.263158,73.3202559 186.263158,73.3202559 L202.842105,73.3202559 C202.842105,73.3202559 205.605263,65.3987207 205.605263,58.0298507 C205.605263,50.6609808 210.947368,0.184221748 163.605263,0.184221748 C125.289474,0.184221748 113.315789,4.42132196 113.315789,4.42132196 Z"
          id="Path" fill="#403831"></path>
        <path
          d="M166.368421,37.2127932 C174.105263,37.3970149 182.210526,39.4234542 183.868421,45.5027719 C187.184211,58.7667377 186.263158,73.5044776 186.263158,73.5044776 L202.842105,73.5044776 C202.842105,73.5044776 205.605263,65.5829424 205.605263,58.2140725 C205.605263,55.4507463 206.342105,46.7923241 204.868421,36.8443497 L166.368421,37.2127932 Z"
          id="Path" fill="#635F5B"></path>
        <path
          d="M190.315789,98.1901919 C182.394737,97.2690832 187.368421,91.0055437 188.105263,84.189339 C188.842105,77.3731343 191.973684,66.1356077 203.026316,66.1356077 C216.842105,65.9513859 207.447368,100.400853 190.315789,98.1901919 Z"
          id="Path" fill="#F2D0B6"></path>
        <polygon id="Path" fill="#D6B096"
                 points="118.473684 91.7424307 126.210526 91.7424307 120.131579 101.321962"></polygon>
        <polygon id="Path" fill="#2E2F2F"
                 points="110.736842 60.2405117 164.342105 63.1880597 162.5 82.3471215 132.657895 80.5049041 124.736842 69.6358209 119.210526 78.8469083 111.473684 77.5573561"></polygon>
        <g id="EAR_MIC" transform="translate(194.736842, 76.530917)">
          <path
            d="M0.552631579,5.63198294 C0.552631579,8.39530917 2.39473684,10.6059701 4.78947368,10.6059701 C5.89473684,10.6059701 7.92105263,10.6059701 7.92105263,10.6059701 L9.02631579,5.63198294 L7.92105263,0.657995736 C7.92105263,0.657995736 6.44736842,0.657995736 4.78947368,0.657995736 C2.39473684,0.657995736 0.552631579,2.86865672 0.552631579,5.63198294 Z"
            id="Path" fill="#7C7C7C"></path>
          <path
            d="M7.92105263,0.657995736 C5.52631579,0.657995736 3.68421053,2.86865672 3.68421053,5.63198294 C3.68421053,7.65842217 4.60526316,9.31641791 6.07894737,10.0533049 L6.07894737,80.7944563 L7.92105263,80.241791 L7.92105263,10.4217484 C10.3157895,10.4217484 12.1578947,8.21108742 12.1578947,5.44776119 C12.1578947,2.68443497 10.3157895,0.657995736 7.92105263,0.657995736 Z"
            id="Path" fill="#2E2F2F"></path>
        </g>
        <polygon id="K_1_" fill="#F4F4F4"
                 points="217.026316 273.569296 215.184211 280.017058 205.973684 278.911727 214.815789 247.409808 224.026316 248.515139 219.605263 264.173987 227.526316 257.910448 238.394737 259.2 227.342105 267.121535 233.236842 282.41194 222.184211 281.122388 219.421053 272.463966"></polygon>
        <polygon id="Path" fill="#B2B2B2" opacity="0.46"
                 points="234.894737 163.036247 216.657895 152.167164 184.605263 162.29936 229.184211 172.8"></polygon>
        <g id="SHADOWS" transform="translate(49.210526, 162.115139)"
           fill="#0F0F0F">
          <polygon id="Path"
                   points="192.684211 249.067804 199.315789 152.719829 219.763158 80.3206823 217 121.402132 222.710526 147.193177"></polygon>
          <polygon id="Path"
                   points="6.63157895 145.719403 15.6578947 78.2942431 15.6578947 127.48145 19.1578947 174.457996 0.368421053 219.039659"></polygon>
          <path
            d="M46.7894737,339.889126 L91.7368421,346.152665 L100.210526,233.96162 L107.394737,346.152665 C107.394737,346.152665 173.710526,340.994456 194.342105,333.441365 L195.263158,344.310448 C180.157895,350.021322 140.184211,355.179531 120.657895,356.837527 L110.894737,356.837527 L111.631579,407.498507 L86.3947368,360.153518 L48.2631579,352.784648 L46.7894737,339.889126 Z"
            id="Path"></path>
          <polygon id="Path"
                   points="185.684211 0.921108742 215.342105 19.3432836 179.973684 10.6848614"></polygon>
        </g>
      </g>
    </g>
  </g>
</svg>
