<?xml version="1.0" encoding="UTF-8"?>
<svg xmlns:xlink="http://www.w3.org/1999/xlink" width="50px" height="50px"
     viewBox="0 0 50 50"
     version="1.1"
     xmlns="http://www.w3.org/2000/svg">
  <title>button-share</title>
  <g id="Page-1" stroke="none" stroke-width="1" fill="none"
     fill-rule="evenodd">
    <g id="button-share">
      <rect id="Rectangle" fill="#FFFFFF" x="0" y="0" width="50"
            height="50" rx="25"></rect>
      <path
        d="M26.4609375,29.015625 L26.5234375,28.0625 C26.6380208,27.0416667 27.0911458,26.1510417 27.8828125,25.390625 L27.8828125,25.390625 L29.1484375,24.1875 C30.1380208,23.2291667 30.8307292,22.3567708 31.2265625,21.5703125 C31.6223958,20.7838542 31.8203125,19.9479167 31.8203125,19.0625 C31.8203125,17.1145833 31.2109375,15.6067708 29.9921875,14.5390625 C28.7734375,13.4713542 27.0598958,12.9375 24.8515625,12.9375 C22.6640625,12.9375 20.9375,13.5 19.671875,14.625 C18.40625,15.75 17.7630208,17.3072917 17.7421875,19.296875 L17.7421875,19.296875 L22.2734375,19.296875 C22.2942708,18.4635417 22.5364583,17.8098958 23,17.3359375 C23.4635417,16.8619792 24.0807292,16.625 24.8515625,16.625 C26.4765625,16.625 27.2890625,17.5052083 27.2890625,19.265625 C27.2890625,19.8489583 27.1328125,20.4036458 26.8203125,20.9296875 C26.5078125,21.4557292 25.8802083,22.1380208 24.9375,22.9765625 C23.9947917,23.8151042 23.3463542,24.6666667 22.9921875,25.53125 C22.6380208,26.3958333 22.4609375,27.5572917 22.4609375,29.015625 L22.4609375,29.015625 L26.4609375,29.015625 Z M24.5390625,36.1875 C25.2994792,36.1875 25.9114583,35.9635417 26.375,35.515625 C26.8385417,35.0677083 27.0703125,34.5 27.0703125,33.8125 C27.0703125,33.1145833 26.8333333,32.5390625 26.359375,32.0859375 C25.8854167,31.6328125 25.2786458,31.40625 24.5390625,31.40625 C23.7994792,31.40625 23.1927083,31.6328125 22.71875,32.0859375 C22.2447917,32.5390625 22.0078125,33.1145833 22.0078125,33.8125 C22.0078125,34.5 22.2395833,35.0677083 22.703125,35.515625 C23.1666667,35.9635417 23.7786458,36.1875 24.5390625,36.1875 Z"
        id="?" fill="#666666" fill-rule="nonzero"></path>
    </g>
  </g>
</svg>
