<?xml version="1.0" encoding="UTF-8"?>
<svg xmlns:xlink="http://www.w3.org/1999/xlink" width="24px" height="24px"
     viewBox="0 0 24 24"
     version="1.1"
     xmlns="http://www.w3.org/2000/svg">
  <title>expand-diagonal</title>
  <g id="expand-diagonal" stroke="none" stroke-width="1" fill="none"
     fill-rule="evenodd">
    <path
      d="M0,22.5882353 C0,23.3679314 0.632069016,24 1.41176512,24 L7.05882383,24 C7.62973567,24 8.14437776,23.6559141 8.36283977,23.1284535 C8.58130178,22.6009929 8.46057615,21.9938742 8.05694145,21.5901176 L6.73129442,20.2630588 C6.66499735,20.1970855 6.62772471,20.1074119 6.62772471,20.0138824 C6.62772471,19.9203528 6.66499735,19.8306792 6.73129442,19.7647059 L19.7647059,6.72988235 C19.8309207,6.66349998 19.9208279,6.62619262 20.0145883,6.62619262 C20.1083487,6.62619262 20.1982558,6.66349998 20.2644706,6.72988235 L21.5901177,8.05552941 C21.8545819,8.3208228 22.2136398,8.47013401 22.5882353,8.47058824 C22.7738172,8.47118761 22.9576493,8.43470919 23.1289411,8.36329412 C23.6563634,8.14461693 24,7.62978227 24,7.05882353 L24,1.41176471 C24,0.632068588 23.3679314,0 22.5882353,0 L16.9411766,0 C16.3702647,0 15.8556226,0.344085882 15.6371606,0.871546506 C15.4186986,1.39900713 15.5394242,2.00612576 15.9430589,2.40988235 L17.268706,3.73552941 C17.3350883,3.80174419 17.3723957,3.89165135 17.3723957,3.98541176 C17.3723957,4.07917218 17.3350883,4.16907934 17.268706,4.23529412 L4.23529447,17.2672941 C4.1690797,17.3336765 4.07917254,17.3709838 3.98541212,17.3709838 C3.89165171,17.3709838 3.80174455,17.3336765 3.73552978,17.2672941 L2.40988274,15.9416471 C2.00594448,15.5378304 1.39848335,15.4171944 0.87089451,15.6360186 C0.343305674,15.8548428 -0.000448934657,16.3700077 0,16.9411765 L0,22.5882353 Z"
      id="Path" fill="#000000" fill-rule="nonzero"></path>
  </g>
</svg>
