<?xml version="1.0" encoding="UTF-8"?>
<svg xmlns:xlink="http://www.w3.org/1999/xlink" width="37px" height="40px"
     viewBox="0 0 37 40"
     version="1.1"
     xmlns="http://www.w3.org/2000/svg">
  <title>kPaste</title>
  <g id="Page-1" stroke="none" stroke-width="1" fill="none"
     fill-rule="evenodd">
    <g id="Paste">
      <path
        d="M12.8878987,0.814738088 L35.3955911,7.74018198 C36.2541401,8.00435091 36.84,8.7975814 36.84,9.69585287 L36.84,28.9449757 C36.84,30.0750353 35.9239057,30.9911295 34.7938462,30.9911295 C34.5898758,30.9911295 34.3870519,30.9606314 34.1921013,30.9006466 L11.684409,23.9752031 C10.82586,23.7110342 10.24,22.9178037 10.24,22.0195322 L10.24,2.77040898 C10.24,1.64034941 11.1560943,0.724255134 12.2861538,0.724255134 C12.4901242,0.724255134 12.6929482,0.754753293 12.8878987,0.814738088 Z"
        id="Rectangle-Copy-15" fill="#FFA200"
        opacity="0.275320871"></path>
      <path
        d="M7.76789875,4.0885842 L30.2755911,11.0140281 C31.1341401,11.278197 31.72,12.0714275 31.72,12.969699 L31.72,32.2188218 C31.72,33.3488814 30.8039057,34.2649756 29.6738462,34.2649756 C29.4698758,34.2649756 29.2670519,34.2344775 29.0721013,34.1744927 L6.56440898,27.2490492 C5.70585995,26.9848803 5.12,26.1916498 5.12,25.2933783 L5.12,6.04425509 C5.12,4.91419553 6.03609428,3.99810124 7.16615385,3.99810124 C7.3701242,3.99810124 7.57294817,4.0285994 7.76789875,4.0885842 Z"
        id="Rectangle-Copy-10" fill="#FCA50D"
        opacity="0.676083519"></path>
      <path
        d="M2.64789875,8.18089189 L25.1555911,15.1063358 C26.0141401,15.3705047 26.6,16.1637352 26.6,17.0620067 L26.6,36.3183651 C26.6,37.4484247 25.6839057,38.3645189 24.5538462,38.3645189 C24.3515906,38.3645189 24.1504526,38.3345314 23.9569929,38.2755344 L17.9038462,36.4295826 L17.9038462,36.4295826 L10.2447086,34.19866 C10.2354162,34.1959533 10.2261626,34.193115 10.2169507,34.1901457 L1.41842235,31.3541225 C0.573037401,31.0816302 -4.69646811e-14,30.2948533 -4.61852778e-14,29.4066372 L-4.61852778e-14,10.1365628 C-4.63236702e-14,9.00650322 0.916094281,8.09040894 2.04615385,8.09040894 C2.2501242,8.09040894 2.45294817,8.1209071 2.64789875,8.18089189 Z"
        id="Rectangle" fill="#FCA000"></path>
      <path
        d="M4,31 C4.92534361,33.2286266 5.12370336,35.3217661 4.59507925,37.2794185 C3.80214308,40.2158972 10.4738646,34.7185019 9.29940593,32.859251 C8.51643346,31.6197503 6.74996482,31 4,31 Z"
        id="Path-2" fill="#FCA000"></path>
      <g id="login-key" transform="translate(5.000000, 17.000000)"
         fill="#FFFFFF" fill-rule="nonzero">
        <path
          d="M14.6874926,0.601955102 L12.812451,0.0146694222 C12.7294226,-0.0113360845 12.6498142,-0.00251448674 12.5911961,0.0391373122 L6.63481408,4.25311149 C4.57190199,2.64559181 2.13047868,2.56453767 0.837127573,4.06063094 C-0.456223531,5.55672421 -0.230550696,8.20086378 1.37303642,10.3397109 C2.97662353,12.4785581 5.49819304,13.4986607 7.36104736,12.7621646 C9.22390167,12.0256686 9.89374734,9.74381162 8.95174044,7.34340282 L10.3967725,6.32059984 L11.6049242,7.10979897 C11.8111088,7.24330094 12.0375658,7.26909428 12.2031921,7.17794136 C12.3688183,7.08678843 12.4499165,6.89173108 12.4174423,6.66262711 L12.1918123,5.05085148 L12.6455723,4.72987748 L13.5555925,5.43717994 C13.7769477,5.60962147 14.0368165,5.65364537 14.2216359,5.55001312 C14.4064552,5.44638086 14.4826261,5.21393215 14.4168616,4.95424753 L14.1006046,3.70127644 L14.9087475,3.12962441 C14.96732,3.08804122 15,3.01704338 15,2.93239811 L15,1.01877362 C15,0.84262935 14.8600854,0.656013256 14.6874926,0.601955102 Z M6,8.33426651 C6,9.17974026 5.32842712,9.86513217 4.5,9.86513217 C3.67157288,9.86513217 3,9.17974026 3,8.33426651 C3,7.48879275 3.67157288,6.80340084 4.5,6.80340084 C5.32842712,6.80340084 6,7.48879275 6,8.33426651 L6,8.33426651 Z"
          id="Shape"></path>
      </g>
    </g>
  </g>
</svg>
