<?xml version="1.0" encoding="UTF-8"?>
<svg width="219px" height="25px" viewBox="0 0 219 25" version="1.1" xmlns="http://www.w3.org/2000/svg" xmlns:xlink="http://www.w3.org/1999/xlink">
    <title>Group 2</title>
    <g id="Page-1" stroke="none" stroke-width="1" fill="none" fill-rule="evenodd">
        <g id="Paste---Home" transform="translate(-162.000000, -257.000000)" fill="#FFFFFF" fill-rule="nonzero">
            <g id="Group-2" transform="translate(162.000000, 257.000000)">
                <path d="M6.7544964,4.98349835 L6.7544964,0.412541254 L0,0.412541254 L0,4.98349835 L6.7544964,4.98349835 Z M6.7544964,24.6039604 L6.7544964,7.07920792 L0,7.07920792 L0,24.6039604 L6.7544964,24.6039604 Z M17.8239045,24.6039604 L17.8239045,16.1881188 C17.8239045,14.5929593 18.0783737,13.4873487 18.587312,12.8712871 C19.0962503,12.2552255 19.7600828,11.9471947 20.5788097,11.9471947 C21.3200894,11.9471947 21.8954109,12.1754675 22.3047744,12.6320132 C22.7141378,13.0885589 22.9188195,13.8668867 22.9188195,14.9669967 L22.9188195,14.9669967 L22.9188195,24.6039604 L29.7065075,24.6039604 L29.7065075,13.4653465 C29.7065075,11.1551155 29.1782074,9.44719472 28.1216073,8.34158416 C27.0650071,7.2359736 25.6018095,6.68316832 23.7320144,6.68316832 C22.3490299,6.68316832 21.176259,6.93344334 20.2137018,7.4339934 C19.2511445,7.93454345 18.2996512,8.76787679 17.3592217,9.9339934 L17.3592217,9.9339934 L17.3592217,7.07920792 L11.0694081,7.07920792 L11.0694081,24.6039604 L17.8239045,24.6039604 Z M41.2571942,24.6039604 L41.2571942,11.9966997 L44.4767822,11.9966997 L44.4767822,7.07920792 L41.2571942,7.07920792 C41.2571942,6.29812981 41.2848539,5.78657866 41.3401733,5.54455446 C41.4508121,5.10451045 41.638898,4.78272827 41.904431,4.57920792 C42.169964,4.37568757 42.6069871,4.27392739 43.2155003,4.27392739 C43.7133748,4.27392739 44.3661434,4.33993399 45.1738064,4.47194719 L45.1738064,4.47194719 L45.9206181,0.412541254 C43.6635873,0.137513751 41.9431546,0 40.7593198,0 C39.2767604,0 38.151011,0.167766777 37.3820716,0.50330033 C36.6131322,0.838833883 36.0156829,1.27887789 35.5897237,1.82343234 C35.1637644,2.3679868 34.8733377,3.06930693 34.7184434,3.92739274 C34.5635492,4.78547855 34.486102,5.57205721 34.486102,6.28712871 L34.486102,6.28712871 L34.486102,7.07920792 L31.9635383,7.07920792 L31.9635383,11.9966997 L34.486102,11.9966997 L34.486102,24.6039604 L41.2571942,24.6039604 Z M55.6457652,25 C58.8210977,25 61.3077038,24.1391639 63.1055837,22.4174917 C64.9034636,20.6958196 65.8024035,18.4873487 65.8024035,15.7920792 C65.8024035,13.3938394 65.0777196,11.3751375 63.6283519,9.7359736 C61.82494,7.70077008 59.1585459,6.68316832 55.6291694,6.68316832 C52.5423479,6.68316832 50.0916994,7.54950495 48.2772237,9.28217822 C46.462748,11.0148515 45.5555101,13.2178218 45.5555101,15.8910891 C45.5555101,18.7623762 46.6287061,21.0836084 48.7750981,22.8547855 C50.5231905,24.2849285 52.8134129,25 55.6457652,25 Z M55.6789568,20.4620462 C54.7163996,20.4620462 53.9170346,20.0880088 53.2808617,19.339934 C52.6446888,18.5918592 52.3266024,17.4367437 52.3266024,15.8745875 C52.3266024,14.3344334 52.6474548,13.1875688 53.2891596,12.4339934 C53.9308644,11.680418 54.7440593,11.3036304 55.7287443,11.3036304 C56.6581099,11.3036304 57.4381131,11.6749175 58.0687541,12.4174917 C58.699395,13.160066 59.0147155,14.290429 59.0147155,15.8085809 C59.0147155,17.4367437 58.702161,18.6193619 58.077052,19.3564356 C57.451943,20.0935094 56.6525779,20.4620462 55.6789568,20.4620462 Z M75.8760628,24.6039604 L75.8760628,15.660066 C75.8760628,14.3289329 76.125,13.3718372 76.6228744,12.7887789 C77.1207489,12.2057206 77.7569217,11.9141914 78.5313931,11.9141914 C79.0071397,11.9141914 79.4220351,12.0489549 79.7760791,12.3184818 C80.1301232,12.5880088 80.3790604,12.9427943 80.5228908,13.3828383 C80.6114018,13.6578658 80.6556573,14.180418 80.6556573,14.950495 L80.6556573,14.950495 L80.6556573,24.6039604 L87.4267495,24.6039604 L87.4267495,15.5610561 C87.4267495,14.2959296 87.6701548,13.3773377 88.1569653,12.8052805 C88.6437759,12.2332233 89.2854807,11.9471947 90.0820798,11.9471947 C90.7569762,11.9471947 91.3212339,12.249725 91.7748528,12.8547855 C92.0846414,13.239824 92.2395356,13.8283828 92.2395356,14.620462 L92.2395356,14.620462 L92.2395356,24.6039604 L99.0106279,24.6039604 L99.0106279,13.5973597 C99.0106279,11.2211221 98.4795618,9.47469747 97.4174297,8.35808581 C96.3552976,7.24147415 94.8782701,6.68316832 92.9863473,6.68316832 C91.7029376,6.68316832 90.6242097,6.88943894 89.7501635,7.3019802 C88.8761173,7.71452145 87.9080281,8.49284928 86.845896,9.6369637 C86.3258938,8.65786579 85.6565293,7.92079208 84.8378025,7.42574257 C84.0190756,6.93069307 82.9071561,6.68316832 81.5020438,6.68316832 C80.1965064,6.68316832 79.0818209,6.90869087 78.1579872,7.35973597 C77.2341536,7.81078108 76.3186178,8.56985699 75.41138,9.6369637 L75.41138,9.6369637 L75.41138,7.07920792 L69.1049706,7.07920792 L69.1049706,24.6039604 L75.8760628,24.6039604 Z M108.6362,25 C110.218334,25 111.606851,24.7579758 112.80175,24.2739274 C113.675796,23.9108911 114.555374,23.3058306 115.440484,22.4587459 C115.517931,22.9647965 115.595378,23.3360836 115.672825,23.5726073 C115.750273,23.8091309 115.916231,24.1529153 116.1707,24.6039604 L116.1707,24.6039604 L122.510301,24.6039604 C122.156257,23.8778878 121.926681,23.2810781 121.821575,22.8135314 C121.716468,22.3459846 121.663914,21.69967 121.663914,20.8745875 L121.663914,20.8745875 L121.663914,13.1353135 C121.663914,12.310231 121.497956,11.4438944 121.16604,10.5363036 C120.834124,9.62871287 120.380505,8.92739274 119.805183,8.43234323 C118.986456,7.71727173 117.963048,7.2469747 116.734957,7.02145215 C115.506867,6.79592959 113.880477,6.68316832 111.855788,6.68316832 C110.594506,6.68316832 109.421735,6.77667767 108.337475,6.96369637 C107.253216,7.15071507 106.401297,7.41474147 105.78172,7.75577558 C104.918738,8.22882288 104.257671,8.78712871 103.79852,9.43069307 C103.339369,10.0742574 102.988091,10.9570957 102.744686,12.0792079 L102.744686,12.0792079 L109.200458,12.7557756 C109.465991,11.9966997 109.814503,11.479648 110.245994,11.2046205 C110.799188,10.8525853 111.628979,10.6765677 112.735366,10.6765677 C113.598349,10.6765677 114.20133,10.8415842 114.54431,11.1716172 C114.88729,11.5016502 115.05878,12.0792079 115.05878,12.9042904 C114.217926,13.2343234 113.421327,13.5011001 112.668983,13.7046205 C111.916639,13.9081408 110.273654,14.2629263 107.740026,14.7689769 C105.626826,15.1870187 104.177458,15.8250825 103.391923,16.6831683 C102.606388,17.5412541 102.21362,18.6358636 102.21362,19.9669967 C102.21362,21.3861386 102.758516,22.579758 103.848308,23.5478548 C104.9381,24.5159516 106.534064,25 108.6362,25 Z M111.17536,21.2706271 C110.456208,21.2706271 109.911312,21.1028603 109.540672,20.7673267 C109.170032,20.4317932 108.984712,20 108.984712,19.4719472 C108.984712,19.009901 109.172798,18.5973597 109.54897,18.2343234 C109.914078,17.8822882 110.782592,17.5247525 112.154513,17.1617162 C113.161325,16.9086909 114.129415,16.6171617 115.05878,16.2871287 L115.05878,16.2871287 L115.05878,17.359736 C115.05878,18.1958196 114.923248,18.8751375 114.652183,19.3976898 C114.381118,19.920242 113.921967,20.3630363 113.27473,20.7260726 C112.627493,21.0891089 111.927703,21.2706271 111.17536,21.2706271 Z M132.467789,24.6039604 L132.467789,16.1881188 C132.467789,14.5929593 132.722259,13.4873487 133.231197,12.8712871 C133.740135,12.2552255 134.403968,11.9471947 135.222695,11.9471947 C135.963974,11.9471947 136.539296,12.1754675 136.948659,12.6320132 C137.358023,13.0885589 137.562704,13.8668867 137.562704,14.9669967 L137.562704,14.9669967 L137.562704,24.6039604 L144.350392,24.6039604 L144.350392,13.4653465 C144.350392,11.1551155 143.822092,9.44719472 142.765492,8.34158416 C141.708892,7.2359736 140.245694,6.68316832 138.375899,6.68316832 C136.992915,6.68316832 135.820144,6.93344334 134.857587,7.4339934 C133.895029,7.93454345 132.943536,8.76787679 132.003107,9.9339934 L132.003107,9.9339934 L132.003107,7.07920792 L125.713293,7.07920792 L125.713293,24.6039604 L132.467789,24.6039604 Z M155.386609,4.98349835 L155.386609,0.412541254 L148.632112,0.412541254 L148.632112,4.98349835 L155.386609,4.98349835 Z M155.386609,24.6039604 L155.386609,7.07920792 L148.632112,7.07920792 L148.632112,24.6039604 L155.386609,24.6039604 Z M165.29431,25 C166.876444,25 168.264961,24.7579758 169.459859,24.2739274 C170.333906,23.9108911 171.213484,23.3058306 172.098594,22.4587459 C172.176041,22.9647965 172.253488,23.3360836 172.330935,23.5726073 C172.408382,23.8091309 172.574341,24.1529153 172.82881,24.6039604 L172.82881,24.6039604 L179.168411,24.6039604 C178.814367,23.8778878 178.584791,23.2810781 178.479684,22.8135314 C178.374578,22.3459846 178.322024,21.69967 178.322024,20.8745875 L178.322024,20.8745875 L178.322024,13.1353135 C178.322024,12.310231 178.156066,11.4438944 177.82415,10.5363036 C177.492233,9.62871287 177.038615,8.92739274 176.463293,8.43234323 C175.644566,7.71727173 174.621158,7.2469747 173.393067,7.02145215 C172.164977,6.79592959 170.538587,6.68316832 168.513898,6.68316832 C167.252616,6.68316832 166.079845,6.77667767 164.995585,6.96369637 C163.911325,7.15071507 163.059407,7.41474147 162.43983,7.75577558 C161.576848,8.22882288 160.915781,8.78712871 160.45663,9.43069307 C159.997479,10.0742574 159.646201,10.9570957 159.402796,12.0792079 L159.402796,12.0792079 L165.858568,12.7557756 C166.124101,11.9966997 166.472613,11.479648 166.904104,11.2046205 C167.457298,10.8525853 168.287089,10.6765677 169.393476,10.6765677 C170.256458,10.6765677 170.85944,10.8415842 171.20242,11.1716172 C171.5454,11.5016502 171.71689,12.0792079 171.71689,12.9042904 C170.876036,13.2343234 170.079436,13.5011001 169.327093,13.7046205 C168.574749,13.9081408 166.931764,14.2629263 164.398136,14.7689769 C162.284936,15.1870187 160.835568,15.8250825 160.050033,16.6831683 C159.264497,17.5412541 158.87173,18.6358636 158.87173,19.9669967 C158.87173,21.3861386 159.416626,22.579758 160.506418,23.5478548 C161.596209,24.5159516 163.192174,25 165.29431,25 Z M167.83347,21.2706271 C167.114318,21.2706271 166.569422,21.1028603 166.198782,20.7673267 C165.828142,20.4317932 165.642822,20 165.642822,19.4719472 C165.642822,19.009901 165.830908,18.5973597 166.20708,18.2343234 C166.572188,17.8822882 167.440702,17.5247525 168.812623,17.1617162 C169.819435,16.9086909 170.787525,16.6171617 171.71689,16.2871287 L171.71689,16.2871287 L171.71689,17.359736 C171.71689,18.1958196 171.581358,18.8751375 171.310293,19.3976898 C171.039228,19.920242 170.580077,20.3630363 169.93284,20.7260726 C169.285603,21.0891089 168.585813,21.2706271 167.83347,21.2706271 Z M189.275262,24.6039604 L189.275262,20.049505 L191.814421,17.5742574 L195.382521,24.6039604 L203,24.6039604 L196.311887,13.2178218 L202.634892,7.07920792 L194.320389,7.07920792 L189.275262,12.8877888 L189.275262,0.412541254 L182.371403,0.412541254 L182.371403,24.6039604 L189.275262,24.6039604 Z" id="infomaniak"></path>
                <polygon id="Path-3" points="219 1 219 25 218 25 218 1"></polygon>
            </g>
        </g>
    </g>
</svg>